<svg xmlns="http://www.w3.org/2000/svg" width="248" height="82" viewBox="0 0 248 82"><g id="Logo_enerparc" transform="translate(-722.989 -35.823)"><path id="Pfad_214" fill="#003878" d="M1020.39 35.847h57.462l23.585 37.1-49.637 18.881Z" data-name="Pfad 214" transform="translate(-160.379 -.013)"/><path id="Pfad_215" fill="#003878" d="M865.9 35.823h69.868l31.372 56.412-66.879 25.588Z" data-name="Pfad 215" transform="translate(-77.065)"/><path id="Pfad_216" fill="#003878" d="m1147.917 35.833 23.567 36.751 28.655-10.319-18.811-26.4Z" data-name="Pfad 216" transform="translate(-229.149 -.005)"/><path id="Pfad_217" fill="#c7c8c8" d="M722.989 66.276v17.086H741.3v-3h-15.039v-4.39h10.02v-3h-10.02v-3.696h14.4v-3Z" data-name="Pfad 217" transform="translate(0 -16.409)"/><path id="Pfad_218" fill="#c7c8c8" d="M798.444 83.362h-4.966l-11.6-14.251v14.251h-3.333V66.277h4.964l11.6 14.258V66.277h3.331Z" data-name="Pfad 218" transform="translate(-29.959 -16.409)"/><path id="Pfad_219" fill="#c7c8c8" d="M857.711 80.359h-15.042v-4.387h10.02v-3h-10.02v-3.696h14.4v-3h-17.734v17.086h18.376Z" data-name="Pfad 219" transform="translate(-62.742 -16.409)"/><g id="Gruppe_3156" fill="#c7c8c8" data-name="Gruppe 3156" transform="translate(802.95 49.867)"><path id="Pfad_220" d="M916.272 71.694a5.09 5.09 0 0 0-1.612-3.944 6.16 6.16 0 0 0-4.327-1.473H896.54v17.085h3.329v-6.28h8.48l4.465 6.279h3.818l-4.607-6.475q4.246-.941 4.246-5.194m-3.414.056q0 2.332-3.026 2.333h-9.963v-4.805h9.77q3.216 0 3.219 2.473" data-name="Pfad 220" transform="translate(-896.54 -66.276)"/><path id="Pfad_221" d="M974.63 71.694a5.08 5.08 0 0 0-1.61-3.944 6.16 6.16 0 0 0-4.328-1.473H954.9v17.085h3.333v-6.28h9.905a7.32 7.32 0 0 0 4.815-1.4 4.9 4.9 0 0 0 1.678-3.986m-3.414.056q0 2.332-3.023 2.333h-9.962v-4.809H968q3.218 0 3.218 2.473" data-name="Pfad 221" transform="translate(-928.011 -66.276)"/></g><path id="Pfad_222" fill="#c7c8c8" d="m1023.34 83.361-9.3-17.085h-4.136l-9.3 17.085h3.67l1.962-3.668h11.469l1.965 3.668Zm-7.3-6.668h-8.14l4.084-7.568Z" data-name="Pfad 222" transform="translate(-149.711 -16.409)"/><g id="Gruppe_3157" fill="#c7c8c8" data-name="Gruppe 3157" transform="translate(879.615 49.312)"><path id="Pfad_223" d="M1082.671 71.694a5.1 5.1 0 0 0-1.611-3.944 6.17 6.17 0 0 0-4.329-1.473h-13.791v17.085h3.33v-6.28h8.475l4.469 6.279h3.814l-4.6-6.475q4.243-.941 4.246-5.194m-3.414.056q0 2.332-3.027 2.333h-9.961v-4.805h9.766q3.226 0 3.222 2.473" data-name="Pfad 223" transform="translate(-1062.94 -65.72)"/><path id="Pfad_224" d="M1127.56 65.071a12.66 12.66 0 0 1 10.238 4.668l-3.052 1.056a9.48 9.48 0 0 0-6.967-2.723 9.23 9.23 0 0 0-5.8 1.676 5.5 5.5 0 0 0 0 8.745 9.4 9.4 0 0 0 5.855 1.663 9.27 9.27 0 0 0 6.969-2.777l2.859 1.529a14.1 14.1 0 0 1-18.166 1.706 8.226 8.226 0 0 1 .431-13.265 12.56 12.56 0 0 1 7.633-2.278" data-name="Pfad 224" transform="translate(-1091.74 -65.071)"/></g></g></svg>