<svg xmlns="http://www.w3.org/2000/svg" width="248" height="82" viewBox="0 0 248 82">
  <g id="Logo_enerparc" transform="translate(-722.989 -35.823)">
    <path id="Pfad_214" data-name="Pfad 214" d="M1020.39,35.847h57.462l23.585,37.1L1051.8,91.828Z" transform="translate(-160.379 -0.013)" fill="#003878"/>
    <path id="Pfad_215" data-name="Pfad 215" d="M865.9,35.823h69.868L967.14,92.235l-66.879,25.588Z" transform="translate(-77.065)" fill="#003878"/>
    <path id="Pfad_216" data-name="Pfad 216" d="M1147.917,35.833l23.567,36.751,28.655-10.319-18.811-26.4Z" transform="translate(-229.149 -0.005)" fill="#003878"/>
    <path id="Pfad_217" data-name="Pfad 217" d="M722.989,66.276V83.362H741.3v-3H726.261V75.972h10.02v-3h-10.02V69.276h14.4v-3Z" transform="translate(0 -16.409)" fill="#c7c8c8"/>
    <path id="Pfad_218" data-name="Pfad 218" d="M798.444,83.362h-4.966l-11.6-14.251V83.362h-3.333V66.277h4.964l11.6,14.258V66.277h3.331Z" transform="translate(-29.959 -16.409)" fill="#c7c8c8"/>
    <path id="Pfad_219" data-name="Pfad 219" d="M857.711,80.359H842.669V75.972h10.02v-3h-10.02V69.276h14.4v-3H839.335V83.362h18.376Z" transform="translate(-62.742 -16.409)" fill="#c7c8c8"/>
    <g id="Gruppe_3156" data-name="Gruppe 3156" transform="translate(802.95 49.867)">
      <path id="Pfad_220" data-name="Pfad 220" d="M916.272,71.694a5.09,5.09,0,0,0-1.612-3.944,6.16,6.16,0,0,0-4.327-1.473H896.54V83.362h3.329V77.082h8.48l4.465,6.279h3.818l-4.607-6.475q4.246-.941,4.246-5.194m-3.414.056q0,2.332-3.026,2.333h-9.963V69.276h9.77q3.216,0,3.219,2.473" transform="translate(-896.54 -66.276)" fill="#c7c8c8"/>
      <path id="Pfad_221" data-name="Pfad 221" d="M974.63,71.694a5.084,5.084,0,0,0-1.61-3.944,6.158,6.158,0,0,0-4.328-1.473H954.9V83.362h3.333V77.082h9.905a7.318,7.318,0,0,0,4.815-1.4,4.9,4.9,0,0,0,1.678-3.986m-3.414.056q0,2.332-3.023,2.333h-9.962V69.276H968q3.218,0,3.218,2.473" transform="translate(-928.011 -66.276)" fill="#c7c8c8"/>
    </g>
    <path id="Pfad_222" data-name="Pfad 222" d="M1023.34,83.361l-9.3-17.085h-4.136l-9.3,17.085h3.67l1.962-3.668h11.469l1.965,3.668Zm-7.3-6.668h-8.14l4.084-7.568Z" transform="translate(-149.711 -16.409)" fill="#c7c8c8"/>
    <g id="Gruppe_3157" data-name="Gruppe 3157" transform="translate(879.615 49.312)">
      <path id="Pfad_223" data-name="Pfad 223" d="M1082.671,71.694a5.091,5.091,0,0,0-1.611-3.944,6.17,6.17,0,0,0-4.329-1.473h-13.791V83.362h3.33V77.082h8.475l4.469,6.279h3.814l-4.6-6.475q4.243-.941,4.246-5.194m-3.414.056q0,2.332-3.027,2.333h-9.961V69.276h9.766q3.226,0,3.222,2.473" transform="translate(-1062.939 -65.72)" fill="#c7c8c8"/>
      <path id="Pfad_224" data-name="Pfad 224" d="M1127.56,65.071a12.66,12.66,0,0,1,10.238,4.668l-3.052,1.056a9.479,9.479,0,0,0-6.967-2.723,9.231,9.231,0,0,0-5.8,1.676,5.5,5.5,0,0,0,0,8.745,9.383,9.383,0,0,0,5.855,1.663,9.268,9.268,0,0,0,6.969-2.777l2.859,1.529a14.1,14.1,0,0,1-18.166,1.706,8.226,8.226,0,0,1,.431-13.265,12.563,12.563,0,0,1,7.633-2.278" transform="translate(-1091.738 -65.071)" fill="#c7c8c8"/>
    </g>
  </g>
</svg>