<svg xmlns="http://www.w3.org/2000/svg" width="175" height="41"><path fill="#193251" d="m19.018 16.247-.197.501c-.417.923-1.21 2.022-2.495 3.423-5.458 5.959-9.062 6.098-4.547.645 0 0 4.996-4.38-.18-10.91-4.097-5.17-.85-4.333 1.202-2.453.831.76 2.54 2.339 3.938 3.836 1.722 1.845 2.91 3.012 2.279 4.958m-11.55 2.718s2.924-2.87-.11-7.152c-2.4-3.39-.5-2.84.703-1.607.487.499 1.489 1.534 2.308 2.516 1.54 1.846 2.35 2.658-.238 5.822-3.192 3.904-5.302 3.994-2.662.421Zm-5.96-1.75s3.61-1.446-.1-3.578c-2.935-1.687-.6-1.42.873-.807a57 57 0 0 1 2.824 1.25c1.885.919 2.878 1.322-.32 2.914-3.946 1.964-6.542 2.017-3.277.22Zm137.682 5.8q-1.632.51-3.253.511-3.184 0-4.942-2.027-1.757-2.026-1.756-5.598-.001-3.71 1.882-5.782 1.878-2.068 5.146-2.068 2.469 0 5.3 1.163-.056.821-.249 2.168a50 50 0 0 1-.411 2.48l-1.84.168-1.702-2.238a7.7 7.7 0 0 0-1.537-.142q-.687 0-1.264.085-.631 1.248-.63 3.515 0 2.324.795 3.443.796 1.12 2.416 1.12.77 0 1.867-.241a15 15 0 0 0 2.252-.695l.66 2.834q-1.1.793-2.734 1.304m-70.22-.965h-.084q-1.125.68-2.372 1.093-1.252.409-2.266.41-2.196 0-3.267-1.347t-1.07-4.066v-5.073q0-.625-.096-.808-.097-.186-.48-.41l-1.236-.681.136-2.126q.386-.055.551-.114.3-.054 2.154-.397 1.852-.337 3.088-.396.301.71.466 1.644v7.142q0 1.247.069 1.756.068.51.441.78.37.27 1.275.27 1.319 0 2.553-.482v-6.178q.001-.625-.083-.808-.081-.186-.44-.41l-1.205-.681.109-2.126q2.223-.424 3.473-.651 1.249-.226 2.292-.256.3.71.466 1.644v9.295q0 .51.083.709.08.198.385.397l1.097.653-.083 1.755a28 28 0 0 1-2.717.555 26 26 0 0 1-2.854.295 16 16 0 0 1-.248-.85 2.6 2.6 0 0 0-.137-.538M55.698 10.09q1.662 2.042 1.58 5.81l-8.346 1.587q.383 1.19 1.084 1.743.7.552 1.851.553.797 0 1.895-.24a16 16 0 0 0 2.224-.667l.632 2.807q-1.017.792-2.636 1.301-1.62.512-3.266.512-3.212.001-4.955-2.014-1.745-2.009-1.743-5.554 0-2.464.85-4.236.851-1.77 2.416-2.707 1.565-.935 3.65-.935 3.103 0 4.764 2.04m-7.042 4.592 4.119-1.162q-.056-1.076-.59-1.574-.536-.494-1.497-.494a5 5 0 0 0-1.511.225q-.576 1.39-.52 3.005ZM114.76 4.537l-5.02 1.373-1.24-4.568L113.52 0ZM34.409 21l-.109 2.127h-7.96l-.14-2.692 1.703-.511v-6.857q0-.624-.083-.808c-.053-.124-.202-.26-.438-.41l-1.209-.681.084-2.125.603-.115q3.596-.736 5.188-.792.22.594.357 1.304 1.675-.794 2.732-1.092a7.4 7.4 0 0 1 1.99-.298q4.365 0 4.364 5.385v5.555q0 .595.083.793.082.2.466.425l1.32.792-.111 2.127h-7.577l-.136-2.692 1.345-.396v-5.357q0-1.276-.083-1.787a1.2 1.2 0 0 0-.453-.793q-.37-.281-1.303-.282-.99 0-2.499.31v6.86q0 .594.083.793.084.2.44.425Zm136.259 1.984q-1.621.512-3.266.512-3.213.001-4.957-2.014-1.743-2.009-1.742-5.554 0-2.465.85-4.236.852-1.77 2.415-2.707 1.567-.935 3.653-.935 3.102 0 4.762 2.04 1.662 2.042 1.58 5.81l-8.346 1.587q.384 1.19 1.084 1.743.7.552 1.853.553.794 0 1.895-.24a16 16 0 0 0 2.223-.667l.631 2.807q-1.015.791-2.635 1.301m-3.295-11.532a5 5 0 0 0-1.509.225q-.578 1.39-.522 3.005l4.118-1.162q-.054-1.077-.59-1.574-.536-.495-1.497-.494m-9.197 7.566q0 .594.083.794.083.198.467.424l1.318.793-.108 2.127h-7.578l-.138-2.692 1.346-.397v-5.385q0-1.247-.07-1.77-.067-.527-.45-.81-.387-.281-1.292-.282-.88 0-2.526.31v6.888q.001.594.083.794.083.198.44.424l1.344.793-.11 2.127h-7.96l-.137-2.692 1.7-.51V6.38q.001-.624-.082-.808-.081-.184-.438-.41l-1.207-.653.081-2.154.851-.141q3.622-.68 5.08-.737.244.678.355 1.474v6.46q1.512-.707 2.567-1.034a7 7 0 0 1 2.1-.325q4.281 0 4.281 5.384Zm-69.632 2.665q-1.017.791-2.636 1.301a10.8 10.8 0 0 1-3.266.512q-3.212.001-4.955-2.014-1.745-2.009-1.744-5.554 0-2.465.851-4.236.85-1.77 2.417-2.707 1.563-.935 3.65-.935 3.102 0 4.762 2.04 1.662 2.042 1.58 5.81l-8.346 1.587q.385 1.19 1.084 1.743.701.552 1.854.553.796 0 1.894-.24a16 16 0 0 0 2.223-.667Zm-5.929-10.231q-.796-.001-1.51.225-.577 1.39-.523 3.005L84.7 13.52q-.053-1.076-.59-1.574-.535-.494-1.495-.494m45.336 5.61q.371.681.37 1.643 0 2.325-1.714 3.63-1.719 1.302-4.736 1.303-2.171 0-5.025-.794.166-2.777.357-4.11l1.565-.311 1.73 1.897q.905.285 2.03.284.632.001.99-.085.08-.224.081-.624a1 1 0 0 0-.15-.565q-.151-.226-.673-.54-.521-.311-1.812-.961-1.619-.88-2.47-1.574-.85-.694-1.221-1.432c-.25-.491-.371-1.076-.371-1.756q-.001-2.267 1.633-3.599 1.632-1.332 4.433-1.333 1.153 0 2.43.27t2.292.723q.001 1.843-.248 4.108l-1.427.227-1.838-2.04q-.715-.226-2.088-.226-.22-.001-.878.055-.08.171-.081.54 0 .396.218.694.219.296.784.652c.373.237.975.571 1.797 1.006q1.81.909 2.732 1.571.919.668 1.29 1.348Zm-14.18 1.956q0 .594.082.794.082.198.468.424l1.344.793-.08 2.127h-8.238l-.136-2.607 1.949-.596v-6.886q0-.624-.124-.837-.123-.212-.644-.496l-1.091-.005V8.393l6.47-.114Zm-9.3 2.183-.083 1.955h-8.62l-.081-2.607 1.92-.596V11.65l-1.92-.029V8.845l1.92-.113V6.889q.001-2.55 1.442-3.981 1.442-1.43 3.996-1.43 1.673 0 3.704.368l-.63 3.854a16.5 16.5 0 0 0-2.1-.47 10.7 10.7 0 0 0-1.8-.097v3.344l2.27-.04v3.28l-2.27-.01v7.313q0 .594.084.794.082.197.465.423ZM5.068 36.016q0 1.027-.771 1.602-.771.574-2.094.574-1.432 0-2.203-.356v-.873q.495.202 1.08.32.584.116 1.156.116.938 0 1.41-.343.475-.343.474-.955 0-.405-.168-.662t-.561-.476q-.394-.218-1.199-.495-1.124-.388-1.605-.92-.483-.532-.482-1.388 0-.9.7-1.431t1.85-.532q1.2 0 2.21.425l-.293.788q-.997-.405-1.939-.405-.744 0-1.162.309-.42.309-.419.856 0 .404.154.663.155.258.52.473.367.215 1.122.476 1.268.437 1.743.936.477.5.477 1.298m4.002 2.176q-1.31 0-2.03-.78-.719-.779-.719-2.204 0-1.463.73-2.261t2.08-.798q.435 0 .87.09t.683.213l-.28.75a4.4 4.4 0 0 0-.662-.194 3 3 0 0 0-.633-.077q-1.84 0-1.84 2.266 0 1.075.449 1.65.45.573 1.33.574.755 0 1.548-.314v.782q-.606.303-1.526.303m7.17-.106v-3.772q0-.713-.336-1.064-.336-.35-1.052-.35-.954 0-1.391.5t-.438 1.638v3.048h-.914v-8.277h.914v2.505q0 .452-.044.75h.055q.27-.42.768-.662a2.6 2.6 0 0 1 1.138-.242q1.107 0 1.66.508.554.508.554 1.614v3.804Zm8.084-2.92q0 1.425-.743 2.225-.744.801-2.055.801-.81 0-1.438-.367a2.45 2.45 0 0 1-.97-1.053q-.34-.686-.34-1.607 0-1.425.737-2.22.738-.795 2.05-.796 1.266 0 2.013.814.746.815.746 2.202Zm-4.6 0q0 1.116.463 1.701t1.36.586q.9 0 1.364-.583.465-.582.466-1.705 0-1.111-.466-1.689-.465-.576-1.374-.577-.898 0-1.355.57-.457.568-.457 1.696Zm11.495 0q0 1.425-.744 2.225-.743.801-2.055.801-.81 0-1.438-.367a2.45 2.45 0 0 1-.97-1.053q-.34-.686-.34-1.607 0-1.425.738-2.22t2.049-.796q1.267 0 2.013.814.747.815.747 2.202Zm-4.6 0q0 1.116.463 1.701t1.36.586q.898 0 1.364-.583.465-.582.465-1.705 0-1.111-.465-1.689-.465-.576-1.375-.577-.897 0-1.355.57-.457.568-.457 1.696Zm7.197 2.92h-.914v-8.277h.914Zm8.743 0-.182-.83h-.044q-.451.547-.9.742-.45.194-1.121.194-.899 0-1.408-.447-.51-.447-.51-1.271 0-1.767 2.926-1.851l1.024-.032v-.362q0-.686-.306-1.013-.306-.328-.977-.328-.755 0-1.708.447l-.28-.675a4.4 4.4 0 0 1 .977-.367 4.4 4.4 0 0 1 1.066-.133q1.08 0 1.6.463.52.462.52 1.484v3.979Zm-2.066-.623q.855 0 1.342-.452t.487-1.266v-.527l-.914.038q-1.091.037-1.573.327t-.482.901q0 .48.3.73t.84.25Zm8.84.623v-3.772q0-.713-.337-1.064-.336-.35-1.052-.35-.947 0-1.388.494-.44.495-.44 1.633v3.059H45.2v-5.83h.743l.15.797h.043q.28-.431.788-.667a2.6 2.6 0 0 1 1.13-.237q1.09 0 1.64.508.552.508.552 1.625v3.804h-.915Zm6.982-.782h-.05q-.633.888-1.895.888-1.185 0-1.842-.782-.66-.782-.659-2.223 0-1.442.661-2.24.66-.798 1.84-.798 1.23 0 1.884.862h.072l-.039-.42-.022-.41v-2.372h.915v8.277h-.744Zm-1.83.149q.938 0 1.359-.492.42-.492.421-1.588v-.186q0-1.24-.427-1.77-.426-.529-1.363-.529-.804 0-1.231.604t-.427 1.705q0 1.117.424 1.686.425.57 1.245.57Zm12.969-4.878q0 1.18-.835 1.816-.834.636-2.388.636h-.947v3.059h-.937v-7.777h2.088q3.018 0 3.019 2.266m-4.17 1.675h.843q1.245 0 1.8-.388.558-.389.557-1.245 0-.771-.523-1.149-.524-.378-1.63-.377h-1.047v3.16Zm11.009.915q0 1.426-.744 2.226-.743.801-2.054.801-.81 0-1.438-.367a2.45 2.45 0 0 1-.97-1.053q-.34-.686-.341-1.607 0-1.425.738-2.22t2.05-.796q1.266 0 2.013.814.746.815.746 2.202m-4.6 0q0 1.117.463 1.702t1.36.586q.9 0 1.364-.583.465-.582.465-1.705 0-1.111-.465-1.689-.465-.576-1.374-.577-.898 0-1.355.57-.458.568-.458 1.696m11.494 0q0 1.426-.743 2.226-.744.801-2.055.801-.81 0-1.438-.367a2.45 2.45 0 0 1-.97-1.053q-.34-.686-.34-1.607 0-1.425.737-2.22.738-.795 2.05-.796 1.266 0 2.013.814.746.815.746 2.202m-4.6 0q0 1.117.463 1.702t1.361.586c.898.001 1.053-.195 1.363-.583q.465-.582.466-1.705 0-1.111-.466-1.689-.465-.576-1.374-.577-.898 0-1.355.57-.457.568-.457 1.696Zm7.198 2.92h-.914V29.81h.914v8.277Zm7.751-5.143H90v5.144h-.914v-5.144h-1.08v-.4l1.08-.318v-.325q0-2.15 1.944-2.149.48 0 1.124.186l-.237.708q-.528-.165-.903-.165-.517 0-.766.332-.248.333-.248 1.067v.377h1.537Zm6.393 2.223q0 1.426-.743 2.226-.744.801-2.055.801-.81 0-1.438-.367a2.45 2.45 0 0 1-.97-1.053q-.34-.686-.34-1.607 0-1.425.737-2.22.738-.795 2.05-.796 1.266 0 2.013.814.747.815.746 2.202m-4.6 0q0 1.117.463 1.702t1.361.586c.898.001 1.053-.195 1.363-.583q.466-.582.466-1.705 0-1.111-.466-1.689-.465-.576-1.374-.577-.898 0-1.355.57-.457.568-.457 1.696Zm9.038-3.016q.402 0 .721.064l-.126.82a3.2 3.2 0 0 0-.661-.08q-.733-.001-1.253.574-.521.575-.521 1.43v3.129h-.914v-5.83h.754l.105 1.08h.044q.336-.57.81-.878a1.87 1.87 0 0 1 1.04-.309Zm11.508 1.974q0 1.925-1.082 2.944-1.083 1.02-3.116 1.019h-2.23v-7.777h2.467q1.88 0 2.92 1.005t1.04 2.809Zm-.992.032q0-1.522-.79-2.293t-2.35-.771h-1.36v6.213h1.14q1.675 0 2.518-.796.842-.795.842-2.353m3.645 3.93h-.915v-5.83h.915Zm-.992-7.41q0-.303.154-.444a.55.55 0 0 1 .386-.14.55.55 0 0 1 .38.143q.16.144.16.442 0 .297-.16.444a.54.54 0 0 1-.38.146.54.54 0 0 1-.386-.146q-.154-.147-.154-.444Zm7.952 1.58v.559l-1.118.128a1.84 1.84 0 0 1 .397 1.165q0 .855-.606 1.367-.606.51-1.664.51-.27 0-.507-.042-.585.297-.584.75 0 .24.204.354t.7.114h1.068q.98 0 1.507.399.525.4.526 1.16 0 .968-.804 1.476-.805.508-2.347.508-1.184 0-1.826-.426-.642-.425-.642-1.202 0-.532.353-.92.352-.39.991-.527a.95.95 0 0 1-.388-.314.8.8 0 0 1-.157-.494q0-.32.176-.559.176-.24.557-.463a1.6 1.6 0 0 1-.763-.633 1.8 1.8 0 0 1-.295-1.021q0-.957.595-1.476t1.686-.519q.473 0 .853.106Zm-4.814 6.81q0 .472.413.718.413.244 1.184.244 1.152 0 1.705-.332.554-.333.554-.902 0-.474-.303-.657t-1.14-.183h-1.097q-.622 0-.97.287-.346.287-.346.824Zm.495-4.942q0 .611.358.925.36.315.998.314 1.338 0 1.338-1.255 0-1.314-1.355-1.314-.645 0-.992.335-.346.335-.347.995m6.553 3.963h-.914v-5.83h.914Zm-.991-7.41q0-.303.154-.445a.55.55 0 0 1 .386-.14.55.55 0 0 1 .38.143q.16.144.16.442 0 .297-.16.444a.54.54 0 0 1-.38.146.54.54 0 0 1-.386-.146q-.154-.147-.154-.444m4.96 6.787q.243 0 .469-.034.226-.035.358-.072v.675q-.15.07-.438.115c-.288.045-.366.045-.52.045q-1.753 0-1.752-1.782v-3.468h-.865v-.426l.865-.367.385-1.245h.529v1.351h1.752v.687h-1.752v3.43q0 .527.259.81.259.28.71.281m5.826.623-.182-.83h-.044q-.45.547-.9.742t-1.121.194q-.898 0-1.408-.447t-.51-1.271q0-1.767 2.926-1.851l1.024-.032v-.362q0-.686-.305-1.013-.306-.328-.978-.328-.754 0-1.708.447l-.28-.675a4.4 4.4 0 0 1 .977-.367 4.4 4.4 0 0 1 1.066-.133q1.08 0 1.6.463.52.462.52 1.484v3.979Zm-2.066-.623q.855 0 1.342-.452t.487-1.266v-.527l-.914.038q-1.09.037-1.573.327t-.482.901q0 .48.3.73t.84.25Zm5.622.623h-.914v-8.277h.914Zm7.647 0h-.937v-6.974h-2.55v-.803h6.037v.803h-2.55Zm6.514 0-.182-.83h-.044q-.45.547-.9.742t-1.121.194q-.898 0-1.408-.447t-.51-1.271q0-1.767 2.926-1.851l1.024-.032v-.362q0-.686-.305-1.013-.306-.328-.978-.328-.754 0-1.708.447l-.28-.675a4.4 4.4 0 0 1 .977-.367 4.4 4.4 0 0 1 1.066-.133q1.08 0 1.6.463.52.462.52 1.484v3.979Zm-2.066-.623q.855 0 1.342-.452t.487-1.266v-.527l-.914.038q-1.09.037-1.573.327t-.482.901q0 .48.3.73t.84.25Zm5.622.623h-.914v-8.277h.914Zm4.57.106q-1.339 0-2.112-.787t-.774-2.187q0-1.41.718-2.24.72-.828 1.931-.829 1.135 0 1.796.72.66.721.661 1.903v.558h-4.159q.027 1.027.537 1.559.51.531 1.435.532a5 5 0 0 0 1.928-.394v.787a5 5 0 0 1-.917.29 5.3 5.3 0 0 1-1.044.088m-.248-5.304q-.727 0-1.16.458t-.509 1.266h3.156q0-.835-.385-1.28-.385-.443-1.102-.444m8.239 5.198v-3.772q0-.713-.336-1.064-.336-.35-1.053-.35-.947 0-1.388.494-.44.495-.44 1.633v3.059h-.915v-5.83h.744l.149.797h.044q.281-.431.787-.667a2.6 2.6 0 0 1 1.13-.237q1.09 0 1.641.508t.551 1.625v3.804Zm4.823-.623q.242 0 .468-.034.226-.035.358-.072v.675q-.15.07-.438.115c-.288.045-.366.045-.52.045q-1.752 0-1.752-1.782v-3.468h-.865v-.426l.865-.367.385-1.245h.53v1.351h1.75v.687h-1.75v3.43q0 .527.258.81.26.28.71.281Z"/></svg>