<svg width="175" height="41" xmlns="http://www.w3.org/2000/svg"><path d="M19.018 16.247l-.197.501c-.417.923-1.21 2.022-2.495 3.423-5.458 5.959-9.062 6.098-4.547.645 0 0 4.996-4.38-.18-10.91-4.097-5.17-.85-4.333 1.202-2.453.831.76 2.54 2.339 3.938 3.836 1.722 1.845 2.91 3.012 2.279 4.958zm-11.55 2.718s2.924-2.87-.11-7.152c-2.4-3.39-.5-2.84.703-1.607.487.499 1.489 1.534 2.308 2.516 1.54 1.846 2.35 2.658-.238 5.822-3.192 3.904-5.302 3.994-2.662.421zm-5.96-1.75s3.61-1.446-.1-3.578c-2.935-1.687-.6-1.42.873-.807a56.93 56.93 0 0 1 2.824 1.25c1.885.919 2.878 1.322-.32 2.914-3.946 1.964-6.542 2.017-3.277.22zm137.682 5.8c-1.088.34-2.173.511-3.253.511-2.123 0-3.77-.676-4.942-2.027-1.172-1.35-1.756-3.217-1.756-5.598 0-2.474.626-4.401 1.882-5.782 1.252-1.379 2.967-2.068 5.146-2.068 1.646 0 3.412.387 5.3 1.163-.038.548-.12 1.27-.249 2.168a50.234 50.234 0 0 1-.411 2.48l-1.84.168-1.702-2.238a7.72 7.72 0 0 0-1.537-.142c-.458 0-.88.028-1.264.085-.422.832-.63 2.004-.63 3.515 0 1.55.266 2.696.795 3.443.53.746 1.337 1.12 2.416 1.12.513 0 1.136-.08 1.867-.241a15.02 15.02 0 0 0 2.252-.695l.66 2.834c-.733.53-1.646.962-2.734 1.304zm-70.22-.965h-.084c-.75.454-1.54.817-2.372 1.093-.834.272-1.59.41-2.266.41-1.463 0-2.554-.45-3.267-1.347-.713-.897-1.07-2.253-1.07-4.066v-5.073c0-.417-.033-.686-.096-.808-.064-.124-.225-.26-.48-.41l-1.236-.681.136-2.126c.258-.037.44-.074.551-.114.2-.037.919-.168 2.154-.397 1.235-.225 2.264-.356 3.088-.396.2.474.357 1.02.466 1.644v7.142c0 .832.023 1.416.069 1.756.046.341.192.6.441.78.246.18.672.27 1.275.27.879 0 1.73-.16 2.553-.482v-6.178c0-.417-.026-.686-.083-.808-.054-.124-.201-.26-.44-.41l-1.205-.681.109-2.126c1.482-.282 2.64-.5 3.473-.651.832-.15 1.597-.236 2.292-.256.2.474.356 1.02.466 1.644v9.295c0 .341.027.576.083.709.054.133.182.263.385.397l1.097.653-.083 1.755a27.91 27.91 0 0 1-2.717.555 25.59 25.59 0 0 1-2.854.295 16.008 16.008 0 0 1-.248-.85 2.574 2.574 0 0 0-.137-.538zM55.698 10.09c1.108 1.362 1.634 3.297 1.58 5.81l-8.346 1.587c.255.794.617 1.374 1.084 1.743.467.368 1.083.553 1.851.553.531 0 1.164-.08 1.895-.24a16.09 16.09 0 0 0 2.224-.667l.632 2.807c-.677.528-1.557.962-2.636 1.301-1.08.342-2.168.512-3.266.512-2.141 0-3.793-.67-4.955-2.014-1.164-1.34-1.743-3.19-1.743-5.554 0-1.642.283-3.056.85-4.236.568-1.18 1.372-2.083 2.416-2.707 1.043-.623 2.26-.935 3.65-.935 2.07 0 3.656.68 4.764 2.04zm-7.042 4.592l4.119-1.162c-.038-.718-.234-1.242-.59-1.574-.358-.33-.856-.494-1.497-.494a4.96 4.96 0 0 0-1.511.225c-.384.927-.557 1.927-.52 3.005zM114.76 4.537l-5.02 1.373-1.24-4.568L113.52 0l1.24 4.537zM34.409 21l-.109 2.127h-7.96l-.14-2.692 1.703-.511v-6.857c0-.416-.027-.686-.083-.808-.053-.124-.202-.26-.438-.41l-1.209-.681.084-2.125.603-.115c2.397-.491 4.127-.754 5.188-.792.147.395.265.832.357 1.304 1.117-.53 2.027-.893 2.732-1.092a7.373 7.373 0 0 1 1.99-.298c2.91 0 4.364 1.795 4.364 5.385v5.555c0 .397.028.66.083.793.055.133.21.275.466.425l1.32.792-.111 2.127h-7.577l-.136-2.692 1.345-.396v-5.357c0-.85-.027-1.447-.083-1.787a1.202 1.202 0 0 0-.453-.793c-.246-.187-.682-.282-1.303-.282-.659 0-1.493.103-2.499.31v6.86c0 .397.028.66.083.793.056.133.202.275.44.425L34.41 21zm136.259 1.984c-1.08.342-2.17.512-3.266.512-2.143 0-3.793-.67-4.957-2.014-1.162-1.34-1.742-3.19-1.742-5.554 0-1.643.283-3.056.85-4.236.567-1.18 1.374-2.083 2.415-2.707 1.045-.623 2.262-.935 3.653-.935 2.067 0 3.656.68 4.762 2.04 1.108 1.362 1.635 3.297 1.58 5.81l-8.346 1.587c.256.794.618 1.374 1.084 1.743.467.368 1.085.553 1.853.553.53 0 1.16-.08 1.895-.24a16.17 16.17 0 0 0 2.223-.667l.631 2.807c-.677.528-1.555.961-2.635 1.301zm-3.295-11.532a4.93 4.93 0 0 0-1.509.225c-.386.927-.559 1.927-.522 3.005l4.118-1.162c-.036-.718-.232-1.242-.59-1.574-.357-.33-.856-.494-1.497-.494zm-9.197 7.566c0 .397.028.66.083.794.056.132.21.273.467.424l1.318.793-.108 2.127h-7.578l-.138-2.692 1.346-.397v-5.385c0-.832-.023-1.421-.07-1.77-.044-.352-.195-.62-.45-.81-.259-.187-.688-.282-1.292-.282-.587 0-1.428.103-2.526.31v6.888c0 .397.029.66.083.794.055.132.202.273.44.424l1.344.793-.11 2.127h-7.96l-.137-2.692 1.7-.51V6.38c0-.416-.026-.685-.082-.808-.054-.123-.2-.259-.438-.41l-1.207-.653.081-2.154.851-.141c2.415-.454 4.108-.698 5.08-.737.162.452.282.944.355 1.474v6.46c1.007-.47 1.864-.817 2.567-1.034a7.086 7.086 0 0 1 2.1-.325c2.854 0 4.281 1.794 4.281 5.384v5.583zm-69.632 2.665c-.678.528-1.556.961-2.636 1.301a10.752 10.752 0 0 1-3.266.512c-2.141 0-3.793-.67-4.955-2.014-1.164-1.34-1.744-3.19-1.744-5.554 0-1.643.284-3.056.851-4.236.568-1.18 1.372-2.083 2.417-2.707 1.042-.623 2.259-.935 3.65-.935 2.068 0 3.655.68 4.762 2.04 1.108 1.362 1.635 3.297 1.58 5.81l-8.346 1.587c.256.794.618 1.374 1.084 1.743.468.368 1.085.553 1.854.553.53 0 1.162-.08 1.894-.24a16.137 16.137 0 0 0 2.223-.667l.632 2.807zm-5.929-10.231c-.53 0-1.034.073-1.51.225-.384.927-.559 1.927-.523 3.005L84.7 13.52c-.036-.718-.232-1.242-.59-1.574-.357-.33-.855-.494-1.495-.494zm45.336 5.61c.248.454.37 1.002.37 1.643 0 1.55-.572 2.76-1.714 3.63-1.146.867-2.724 1.303-4.736 1.303-1.448 0-3.122-.265-5.025-.794.11-1.851.23-3.222.357-4.11l1.565-.311 1.73 1.897c.603.19 1.28.284 2.03.284.422 0 .751-.027.99-.085.053-.149.081-.358.081-.624a.99.99 0 0 0-.15-.565c-.1-.151-.326-.33-.673-.54-.347-.207-.952-.528-1.812-.961-1.078-.587-1.904-1.112-2.47-1.574-.566-.462-.974-.94-1.221-1.432-.25-.491-.371-1.076-.371-1.756 0-1.512.543-2.71 1.633-3.599 1.088-.887 2.566-1.333 4.433-1.333.769 0 1.579.09 2.43.27.852.18 1.615.421 2.292.723 0 1.228-.081 2.598-.248 4.108l-1.427.227-1.838-2.04c-.476-.151-1.173-.226-2.088-.226-.146 0-.439.017-.878.055-.053.114-.081.294-.081.54 0 .265.072.495.218.694.146.197.407.415.784.652.373.237.975.571 1.797 1.006 1.208.605 2.117 1.13 2.732 1.571.613.446 1.042.894 1.29 1.348zm-14.18 1.956c0 .397.027.66.082.794.056.132.21.273.468.424l1.344.793-.08 2.127h-8.238l-.136-2.607 1.949-.596v-6.886c0-.417-.041-.694-.124-.837-.081-.141-.297-.307-.644-.496l-1.091-.005V8.393l6.47-.114v10.74zm-9.3 2.183l-.083 1.955h-8.62l-.081-2.607 1.92-.596V11.65l-1.92-.029V8.845l1.92-.113V6.889c0-1.7.482-3.026 1.442-3.981.962-.953 2.292-1.43 3.996-1.43 1.115 0 2.35.122 3.704.368l-.63 3.854a16.454 16.454 0 0 0-2.1-.47 10.665 10.665 0 0 0-1.8-.097v3.344l2.27-.04v3.28l-2.27-.01v7.313c0 .396.028.66.084.794.055.131.21.272.465.423l1.703.965zM5.068 36.016c0 .685-.257 1.218-.771 1.602-.514.383-1.212.574-2.094.574-.954 0-1.689-.119-2.203-.356v-.873c.33.135.69.241 1.08.32.389.077.775.116 1.156.116.625 0 1.095-.114 1.41-.343.317-.228.474-.547.474-.955 0-.27-.056-.49-.168-.662-.112-.172-.299-.33-.561-.476-.263-.145-.662-.31-1.199-.495-.749-.259-1.284-.565-1.605-.92-.322-.355-.482-.817-.482-1.388 0-.6.233-1.077.7-1.431.466-.355 1.083-.532 1.85-.532.8 0 1.537.142 2.21.425l-.293.788c-.665-.27-1.31-.405-1.939-.405-.496 0-.883.103-1.162.309-.28.206-.419.491-.419.856 0 .27.052.49.154.663.103.172.277.33.52.473.245.144.619.302 1.122.476.845.291 1.426.603 1.743.936.318.334.477.766.477 1.298zm4.002 2.176c-.874 0-1.55-.26-2.03-.78-.479-.519-.719-1.254-.719-2.204 0-.975.244-1.729.73-2.261.487-.532 1.18-.798 2.08-.798.29 0 .58.03.87.09.29.06.518.132.683.213l-.28.75a4.414 4.414 0 0 0-.662-.194 3.051 3.051 0 0 0-.633-.077c-1.227 0-1.84.755-1.84 2.266 0 .717.15 1.266.449 1.65.3.382.743.574 1.33.574.503 0 1.02-.105 1.548-.314v.782c-.404.202-.912.303-1.526.303zm7.17-.106v-3.772c0-.475-.112-.83-.336-1.064-.224-.234-.575-.35-1.052-.35-.635 0-1.1.166-1.391.5-.292.333-.438.879-.438 1.638v3.048h-.914v-8.277h.914v2.505c0 .301-.015.551-.044.75h.055c.18-.28.436-.5.768-.662a2.572 2.572 0 0 1 1.138-.242c.738 0 1.292.17 1.66.508.37.338.554.877.554 1.614v3.804h-.914zm8.084-2.92c0 .95-.248 1.692-.743 2.225-.496.534-1.181.801-2.055.801-.54 0-1.02-.122-1.438-.367a2.453 2.453 0 0 1-.97-1.053c-.227-.458-.34-.993-.34-1.607 0-.95.245-1.69.737-2.22.492-.53 1.175-.796 2.05-.796.844 0 1.515.271 2.013.814.497.543.746 1.277.746 2.202zm-4.6 0c0 .744.155 1.311.463 1.701.309.39.762.586 1.36.586.6 0 1.054-.195 1.364-.583.31-.388.466-.956.466-1.705 0-.741-.155-1.304-.466-1.689-.31-.384-.768-.577-1.374-.577-.599 0-1.05.19-1.355.57-.305.379-.457.944-.457 1.696zm11.495 0c0 .95-.248 1.692-.744 2.225-.496.534-1.18.801-2.055.801-.54 0-1.019-.122-1.438-.367a2.453 2.453 0 0 1-.97-1.053c-.227-.458-.34-.993-.34-1.607 0-.95.245-1.69.738-2.22.492-.53 1.175-.796 2.049-.796.844 0 1.516.271 2.013.814.498.543.747 1.277.747 2.202zm-4.6 0c0 .744.154 1.311.463 1.701.308.39.762.586 1.36.586.599 0 1.053-.195 1.364-.583.31-.388.465-.956.465-1.705 0-.741-.155-1.304-.465-1.689-.31-.384-.769-.577-1.375-.577-.598 0-1.05.19-1.355.57-.305.379-.457.944-.457 1.696zm7.197 2.92h-.914v-8.277h.914v8.277zm8.743 0l-.182-.83h-.044c-.301.365-.601.612-.9.742-.3.13-.673.194-1.121.194-.6 0-1.068-.149-1.408-.447-.34-.298-.51-.722-.51-1.271 0-1.178.976-1.795 2.926-1.851l1.024-.032v-.362c0-.457-.102-.795-.306-1.013-.203-.218-.53-.328-.977-.328-.503 0-1.073.15-1.708.447l-.28-.675a4.39 4.39 0 0 1 .977-.367 4.36 4.36 0 0 1 1.066-.133c.72 0 1.253.154 1.6.463.347.308.52.803.52 1.484v3.979h-.677zm-2.066-.623c.57 0 1.017-.15 1.342-.452.325-.301.487-.723.487-1.266v-.527l-.914.038c-.727.024-1.252.134-1.573.327-.321.193-.482.494-.482.901 0 .32.1.563.3.73.2.166.48.25.84.25zm8.84.623v-3.772c0-.475-.113-.83-.337-1.064-.224-.234-.575-.35-1.052-.35-.632 0-1.094.164-1.388.494-.294.33-.44.874-.44 1.633v3.059H45.2v-5.83h.743l.15.797h.043c.187-.287.45-.51.788-.667a2.636 2.636 0 0 1 1.13-.237c.726 0 1.273.17 1.64.508.368.339.552.88.552 1.625v3.804h-.915zm6.982-.782h-.05c-.422.592-1.054.888-1.895.888-.79 0-1.404-.26-1.842-.782-.44-.521-.659-1.262-.659-2.223 0-.962.22-1.708.661-2.24.44-.532 1.054-.798 1.84-.798.82 0 1.447.287 1.884.862h.072l-.039-.42-.022-.41v-2.372h.915v8.277h-.744l-.121-.782zm-1.83.149c.625 0 1.078-.164 1.359-.492.28-.328.421-.858.421-1.588v-.186c0-.827-.142-1.416-.427-1.77-.284-.352-.739-.529-1.363-.529-.536 0-.947.202-1.231.604-.285.403-.427.971-.427 1.705 0 .745.141 1.307.424 1.686.283.38.698.57 1.245.57zm12.969-4.878c0 .787-.278 1.392-.835 1.816-.556.424-1.352.636-2.388.636h-.947v3.059h-.937v-7.777h2.088c2.012 0 3.019.755 3.019 2.266zm-4.17 1.675h.843c.83 0 1.43-.13 1.8-.388.372-.259.557-.674.557-1.245 0-.514-.174-.897-.523-1.149-.349-.252-.893-.377-1.63-.377h-1.047v3.16zm11.009.915c0 .95-.248 1.693-.744 2.226-.495.534-1.18.801-2.054.801-.54 0-1.02-.122-1.438-.367a2.453 2.453 0 0 1-.97-1.053c-.227-.458-.341-.993-.341-1.607 0-.95.246-1.69.738-2.22.492-.53 1.175-.796 2.05-.796.844 0 1.515.271 2.013.814.497.543.746 1.277.746 2.202zm-4.6 0c0 .745.155 1.312.463 1.702.309.39.762.586 1.36.586.6 0 1.054-.195 1.364-.583.31-.388.465-.956.465-1.705 0-.741-.155-1.304-.465-1.689-.31-.384-.768-.577-1.374-.577-.599 0-1.05.19-1.355.57-.305.379-.458.944-.458 1.696zm11.494 0c0 .95-.248 1.693-.743 2.226-.496.534-1.181.801-2.055.801-.54 0-1.02-.122-1.438-.367a2.453 2.453 0 0 1-.97-1.053c-.227-.458-.34-.993-.34-1.607 0-.95.245-1.69.737-2.22.492-.53 1.175-.796 2.05-.796.844 0 1.515.271 2.013.814.498.543.746 1.277.746 2.202zm-4.6 0c0 .745.155 1.312.463 1.702.309.39.762.586 1.361.586s1.053-.195 1.363-.583c.31-.388.466-.956.466-1.705 0-.741-.155-1.304-.466-1.689-.31-.384-.768-.577-1.374-.577-.599 0-1.05.19-1.355.57-.305.379-.457.944-.457 1.696zm7.198 2.92h-.914V29.81h.914v8.277zm7.751-5.143H90v5.144h-.914v-5.144h-1.08v-.4l1.08-.318v-.325c0-1.433.648-2.149 1.944-2.149.32 0 .695.062 1.124.186l-.237.708c-.352-.11-.653-.165-.903-.165-.345 0-.6.11-.766.332-.165.222-.248.577-.248 1.067v.377h1.537v.687zm6.393 2.223c0 .95-.248 1.693-.743 2.226-.496.534-1.181.801-2.055.801-.54 0-1.02-.122-1.438-.367a2.453 2.453 0 0 1-.97-1.053c-.227-.458-.34-.993-.34-1.607 0-.95.245-1.69.737-2.22.492-.53 1.175-.796 2.05-.796.844 0 1.515.271 2.013.814.498.543.746 1.277.746 2.202zm-4.6 0c0 .745.155 1.312.463 1.702.309.39.762.586 1.361.586s1.053-.195 1.363-.583c.31-.388.466-.956.466-1.705 0-.741-.155-1.304-.466-1.689-.31-.384-.768-.577-1.374-.577-.599 0-1.05.19-1.355.57-.305.379-.457.944-.457 1.696zm9.038-3.016c.268 0 .508.021.721.064l-.126.82a3.22 3.22 0 0 0-.661-.08c-.489 0-.906.19-1.253.574-.348.383-.521.86-.521 1.43v3.129h-.914v-5.83h.754l.105 1.08h.044c.224-.38.494-.673.81-.878a1.869 1.869 0 0 1 1.04-.309zm11.508 1.974c0 1.283-.36 2.265-1.082 2.944-.722.68-1.76 1.019-3.116 1.019h-2.23v-7.777h2.467c1.253 0 2.226.335 2.92 1.005.694.67 1.04 1.606 1.04 2.809zm-.992.032c0-1.015-.263-1.779-.79-2.293-.527-.514-1.31-.771-2.35-.771h-1.36v6.213h1.14c1.117 0 1.956-.265 2.518-.796.561-.53.842-1.314.842-2.353zm3.645 3.93h-.915v-5.83h.915v5.83zm-.992-7.41c0-.202.052-.35.154-.444a.55.55 0 0 1 .386-.14.55.55 0 0 1 .38.143c.107.096.16.243.16.442 0 .198-.053.346-.16.444a.544.544 0 0 1-.38.146.538.538 0 0 1-.386-.146c-.102-.098-.154-.246-.154-.444zm7.952 1.58v.559l-1.118.128a1.838 1.838 0 0 1 .397 1.165c0 .57-.202 1.026-.606 1.367-.404.34-.959.51-1.664.51-.18 0-.349-.014-.507-.042-.39.198-.584.448-.584.75 0 .16.068.277.204.354.136.076.37.114.7.114h1.068c.654 0 1.156.133 1.507.399.35.266.526.653.526 1.16 0 .645-.268 1.137-.804 1.476-.536.338-1.319.508-2.347.508-.79 0-1.398-.142-1.826-.426-.428-.283-.642-.684-.642-1.202 0-.355.118-.661.353-.92.235-.26.565-.435.991-.527a.95.95 0 0 1-.388-.314.81.81 0 0 1-.157-.494c0-.213.059-.4.176-.559.118-.16.303-.314.557-.463a1.617 1.617 0 0 1-.763-.633 1.813 1.813 0 0 1-.295-1.021c0-.638.198-1.13.595-1.476.397-.346.958-.519 1.686-.519.315 0 .6.036.853.106h2.088zm-4.814 6.81c0 .315.137.554.413.718.275.163.67.244 1.184.244.768 0 1.336-.11 1.705-.332.37-.222.554-.522.554-.902 0-.316-.101-.535-.303-.657-.202-.122-.582-.183-1.14-.183h-1.097c-.415 0-.738.095-.97.287-.23.191-.346.466-.346.824zm.495-4.942c0 .407.12.716.358.925.24.21.572.314.998.314.892 0 1.338-.418 1.338-1.255 0-.876-.452-1.314-1.355-1.314-.43 0-.76.111-.992.335-.23.223-.347.555-.347.995zm6.553 3.963h-.914v-5.83h.914v5.83zm-.991-7.41c0-.203.051-.35.154-.445a.55.55 0 0 1 .386-.14.55.55 0 0 1 .38.143c.106.096.16.243.16.442 0 .198-.054.346-.16.444a.544.544 0 0 1-.38.146.538.538 0 0 1-.386-.146c-.103-.098-.154-.246-.154-.444zm4.96 6.787c.162 0 .318-.011.469-.034.15-.023.27-.047.358-.072v.675c-.1.047-.245.085-.438.115s-.366.045-.52.045c-1.169 0-1.752-.594-1.752-1.782v-3.468h-.865v-.426l.865-.367.385-1.245h.529v1.351h1.752v.687h-1.752v3.43c0 .352.086.621.259.81.172.187.41.281.71.281zm5.826.623l-.182-.83h-.044c-.3.365-.601.612-.9.742-.3.13-.673.194-1.121.194-.599 0-1.068-.149-1.408-.447-.34-.298-.51-.722-.51-1.271 0-1.178.976-1.795 2.926-1.851l1.024-.032v-.362c0-.457-.102-.795-.305-1.013-.204-.218-.53-.328-.978-.328-.503 0-1.072.15-1.708.447l-.28-.675a4.39 4.39 0 0 1 .977-.367 4.36 4.36 0 0 1 1.066-.133c.72 0 1.253.154 1.6.463.347.308.52.803.52 1.484v3.979h-.677zm-2.066-.623c.57 0 1.017-.15 1.342-.452.325-.301.487-.723.487-1.266v-.527l-.914.038c-.727.024-1.251.134-1.573.327-.321.193-.482.494-.482.901 0 .32.1.563.3.73.2.166.48.25.84.25zm5.622.623h-.914v-8.277h.914v8.277zm7.647 0h-.937v-6.974h-2.55v-.803h6.037v.803h-2.55v6.974zm6.514 0l-.182-.83h-.044c-.3.365-.601.612-.9.742-.3.13-.673.194-1.121.194-.599 0-1.068-.149-1.408-.447-.34-.298-.51-.722-.51-1.271 0-1.178.976-1.795 2.926-1.851l1.024-.032v-.362c0-.457-.102-.795-.305-1.013-.204-.218-.53-.328-.978-.328-.503 0-1.072.15-1.708.447l-.28-.675a4.39 4.39 0 0 1 .977-.367 4.36 4.36 0 0 1 1.066-.133c.72 0 1.253.154 1.6.463.347.308.52.803.52 1.484v3.979h-.677zm-2.066-.623c.57 0 1.017-.15 1.342-.452.325-.301.487-.723.487-1.266v-.527l-.914.038c-.727.024-1.251.134-1.573.327-.321.193-.482.494-.482.901 0 .32.1.563.3.73.2.166.48.25.84.25zm5.622.623h-.914v-8.277h.914v8.277zm4.57.106c-.892 0-1.597-.262-2.112-.787-.516-.525-.774-1.254-.774-2.187 0-.94.24-1.686.718-2.24.48-.552 1.123-.829 1.931-.829.757 0 1.355.24 1.796.72.44.481.661 1.115.661 1.903v.558h-4.159c.018.685.197 1.204.537 1.559.34.354.818.532 1.435.532a5.01 5.01 0 0 0 1.928-.394v.787a4.962 4.962 0 0 1-.917.29 5.332 5.332 0 0 1-1.044.088zm-.248-5.304c-.485 0-.871.153-1.16.458-.288.305-.458.727-.509 1.266h3.156c0-.557-.128-.983-.385-1.28-.257-.295-.624-.444-1.102-.444zm8.239 5.198v-3.772c0-.475-.112-.83-.336-1.064-.224-.234-.575-.35-1.053-.35-.631 0-1.094.164-1.388.494-.294.33-.44.874-.44 1.633v3.059h-.915v-5.83h.744l.149.797h.044c.187-.287.45-.51.787-.667a2.636 2.636 0 0 1 1.13-.237c.727 0 1.274.17 1.641.508.367.339.551.88.551 1.625v3.804h-.914zm4.823-.623c.161 0 .317-.011.468-.034.15-.023.27-.047.358-.072v.675c-.1.047-.245.085-.438.115s-.366.045-.52.045c-1.168 0-1.752-.594-1.752-1.782v-3.468h-.865v-.426l.865-.367.385-1.245h.53v1.351h1.75v.687h-1.75v3.43c0 .352.086.621.258.81.173.187.41.281.71.281z" fill="#193251"/></svg>