<?xml version="1.0" encoding="UTF-8"?><!-- Generator: Adobe Illustrator 15.1.0, SVG Export Plug-In . SVG Version: 6.00 Build 0)  --><!DOCTYPE svg><svg xmlns="http://www.w3.org/2000/svg" xmlns:xlink="http://www.w3.org/1999/xlink" version="1.1" id="Ebene_1" x="0px" y="0px" width="56.693px" height="85.04px" viewBox="0 0 56.693 85.04" enable-background="new 0 0 56.693 85.04" xml:space="preserve">
<g>
	<polygon fill="#7B7C7E" points="2,54.257 22.4,54.257 22.4,34.047  "/>
	<polygon fill="#7B7C7E" points="15.528,23.893 2,37.309 2,50.405 28.736,23.893  "/>
	<polygon fill="#F29526" points="2,13.259 2,33.466 22.377,13.259  "/>
	<rect x="2" y="1.852" fill="#7B7C7E" width="52.693" height="1.622"/>
	<polygon fill="#7B7C7E" points="54.693,54.257 35.203,54.257 35.203,23.894 42.275,23.894 54.693,11.577  "/>
	<path fill="#7B7C7E" d="M10.331,65.68c4.383,0,8.328,0.07,8.328,0.07v-1.59c0,0-5.811,0.057-8.328,0.057   C7.811,64.217,2,64.16,2,64.16v1.59C2,65.75,5.947,65.68,10.331,65.68"/>
	<path fill="#7B7C7E" d="M11.384,65.981l-2.095,2.11c0.074,8.567-0.118,14.642-0.118,14.642h2.377   C11.548,82.733,11.339,76.626,11.384,65.981"/>
	<path fill="#7B7C7E" d="M33.217,80.172c-0.998,1.018-2.79,1.768-5.704,1.768c-2.917,0-4.706-0.75-5.704-1.768   c-1.221-1.247-1.301-3.082-1.301-6.69c0-3.611,0.08-5.444,1.301-6.691c0.998-1.021,2.787-1.768,5.704-1.768   c2.914,0,4.706,0.746,5.704,1.768c1.224,1.247,1.302,3.08,1.302,6.691C34.519,77.09,34.441,78.925,33.217,80.172 M35.09,65.801   c-1.327-1.17-3.705-2.027-7.577-2.027c-3.872,0-6.249,0.857-7.577,2.027c-1.624,1.434-1.728,3.536-1.728,7.681   c0,4.143,0.104,6.247,1.728,7.68c1.328,1.168,3.705,2.026,7.577,2.026c3.872,0,6.25-0.858,7.577-2.026   c1.624-1.433,1.728-3.537,1.728-7.68C36.818,69.337,36.714,67.234,35.09,65.801"/>
	<path fill="#7B7C7E" d="M54.693,82.734l-7.986-18.566h-2.603l-8.151,18.566h2.08c0,0,3.475-8.788,7.049-16.675   c0,0,1.457,3.236,3.435,7.843h-5.001l-1.512,1.469h7.142c0.96,2.26,2.013,4.777,3.063,7.363H54.693z"/>
</g>
</svg>