<svg xmlns="http://www.w3.org/2000/svg" xml:space="preserve" id="Ebene_1" width="56.693" height="85.04" x="0" y="0" viewBox="0 0 56.693 85.04"><path fill="#7b7c7e" d="M2 54.257h20.4v-20.21ZM15.528 23.893 2 37.309v13.096l26.736-26.512Z"/><path fill="#f29526" d="M2 13.259v20.207l20.377-20.207Z"/><path fill="#7b7c7e" d="M2 1.852h52.693v1.622H2ZM54.693 54.257h-19.49V23.894h7.072l12.418-12.317ZM10.331 65.68c4.383 0 8.328.07 8.328.07v-1.59s-5.811.057-8.328.057C7.811 64.217 2 64.16 2 64.16v1.59s3.947-.07 8.331-.07M11.384 65.981l-2.095 2.11c.074 8.567-.118 14.642-.118 14.642h2.377s-.209-6.107-.164-16.752M33.217 80.172c-.998 1.018-2.79 1.768-5.704 1.768-2.917 0-4.706-.75-5.704-1.768-1.221-1.247-1.301-3.082-1.301-6.69 0-3.611.08-5.444 1.301-6.691.998-1.021 2.787-1.768 5.704-1.768 2.914 0 4.706.746 5.704 1.768 1.224 1.247 1.302 3.08 1.302 6.691 0 3.608-.078 5.443-1.302 6.69m1.873-14.371c-1.327-1.17-3.705-2.027-7.577-2.027s-6.249.857-7.577 2.027c-1.624 1.434-1.728 3.536-1.728 7.681 0 4.143.104 6.247 1.728 7.68 1.328 1.168 3.705 2.026 7.577 2.026s6.25-.858 7.577-2.026c1.624-1.433 1.728-3.537 1.728-7.68 0-4.145-.104-6.248-1.728-7.681M54.693 82.734l-7.986-18.566h-2.603l-8.151 18.566h2.08s3.475-8.788 7.049-16.675c0 0 1.457 3.236 3.435 7.843h-5.001l-1.512 1.469h7.142c.96 2.26 2.013 4.777 3.063 7.363Z"/></svg>